Coordinates
version=1
nRows=43
nColumns=12
inDegrees=yes

Units are S.I. units (second, meters, Newtons, ...)
Angles are in degrees

endheader
time	SC_y	SC_z	SC_x	AC_y	AC_z	AC_x	GH_y	GH_z	GH_yy	EL_x	PS_y
       0.0              -41.51          29.83          24.26           62.7         -11.02         -6.635         -162.8           28.9         -170.7          12.72          82.75
   0.01524              -41.51          29.82          24.26           62.7         -11.02         -6.636         -162.7           28.9         -170.7          12.74          82.76
   0.03048               -41.5          29.82          24.26           62.7         -11.02         -6.638         -162.7           28.9         -170.7          12.76          82.76
   0.04571               -41.5          29.82          24.26           62.7         -11.02         -6.639         -162.7          28.89         -170.7          12.78          82.76
   0.06095               -41.5          29.81          24.26           62.7         -11.02         -6.641         -162.6          28.89         -170.7           12.8          82.76
   0.07619              -41.49          29.81          24.26           62.7         -11.02         -6.643         -162.6          28.89         -170.7          12.83          82.77
   0.09143              -41.49           29.8          24.27           62.7         -11.02         -6.645         -162.6          28.89         -170.7          12.85          82.77
    0.1067              -41.49           29.8          24.27           62.7         -11.02         -6.647         -162.6          28.88         -170.7          12.88          82.78
    0.1219              -41.48          29.79          24.27           62.7         -11.02         -6.649         -162.5          28.88         -170.7          12.91          82.78
    0.1371              -41.48          29.79          24.27           62.7         -11.02         -6.652         -162.5          28.88         -170.7          12.94          82.78
    0.1524              -41.48          29.78          24.28           62.7         -11.02         -6.655         -162.4          28.87         -170.7          12.97          82.79
    0.1676              -41.47          29.78          24.28           62.7         -11.02         -6.657         -162.4          28.87         -170.7          13.01          82.79
    0.1829              -41.47          29.77          24.28           62.7         -11.02         -6.661         -162.3          28.87         -170.7          13.04           82.8
    0.1981              -41.46          29.76          24.28           62.7         -11.01         -6.664         -162.3          28.86         -170.7          13.09           82.8
    0.2133              -41.46          29.75          24.29           62.7         -11.01         -6.668         -162.2          28.86         -170.7          13.13          82.81
    0.2286              -41.45          29.75          24.29           62.7         -11.01         -6.672         -162.2          28.85         -170.7          13.18          82.82
    0.2438              -41.44          29.74          24.29           62.7         -11.01         -6.676         -162.1          28.85         -170.7          13.23          82.83
    0.2591              -41.44          29.73           24.3           62.7         -11.01          -6.68         -162.0          28.84         -170.7          13.29          82.83
    0.2743              -41.43          29.72           24.3          62.69         -11.01         -6.686         -162.0          28.84         -170.7          13.35          82.84
    0.2895              -41.42           29.7          24.31          62.69         -11.01         -6.691         -161.9          28.83         -170.7          13.42          82.85
    0.3048              -41.41          29.69          24.31          62.69         -11.01         -6.697         -161.8          28.82         -170.7           13.5          82.86
      0.32               -41.4          29.68          24.32          62.69         -11.01         -6.704         -161.7          28.81         -170.7          13.58          82.88
    0.3352              -41.39          29.66          24.33          62.69         -11.01         -6.711         -161.6           28.8         -170.7          13.67          82.89
    0.3505              -41.37          29.64          24.33          62.69          -11.0          -6.72         -161.4          28.79         -170.7          13.77           82.9
    0.3657              -41.36          29.62          24.34          62.69          -11.0         -6.729         -161.3          28.78         -170.7          13.89          82.92
     0.381              -41.34           29.6          24.35          62.69          -11.0         -6.739         -161.1          28.77         -170.7          14.01          82.94
    0.3962              -41.33          29.58          24.36          62.69          -11.0          -6.75         -161.0          28.75         -170.7          14.16          82.96
    0.4114              -41.31          29.55          24.37          62.68         -10.99         -6.763         -160.8          28.74         -170.7          14.32          82.98
    0.4267              -41.28          29.52          24.39          62.68         -10.99         -6.778         -160.5          28.72         -170.7           14.5          83.01
    0.4419              -41.26          29.48           24.4          62.68         -10.99         -6.794         -160.3           28.7         -170.7           14.7          83.04
    0.4571              -41.23          29.44          24.42          62.68         -10.98         -6.813         -160.0          28.68         -170.7          14.93          83.07
    0.4724              -41.19           29.4          24.44          62.68         -10.98         -6.835         -159.6          28.65         -170.7           15.2          83.11
    0.4876              -41.16          29.35          24.46          62.67         -10.97          -6.86         -159.3          28.62         -170.7          15.51          83.15
    0.5029              -41.11          29.28          24.48          62.67         -10.97         -6.889         -158.8          28.58         -170.7          15.87           83.2
    0.5181              -41.06          29.21          24.52          62.66         -10.96         -6.923         -158.3          28.54         -170.7          16.29          83.27
    0.5333              -40.99          29.13          24.55          62.66         -10.95         -6.963         -157.7          28.49         -170.7          16.79          83.34
    0.5486              -40.92          29.02          24.59          62.65         -10.94         -7.011         -156.9          28.43         -170.8          17.37          83.42
    0.5638              -40.83           28.9          24.64          62.65         -10.93         -7.068         -156.0          28.36         -170.8          18.08          83.52
    0.5791              -40.72          28.76          24.71          62.64         -10.92         -7.137         -155.0          28.27         -170.8          18.93          83.65
    0.5943              -40.59          28.58          24.78          62.63          -10.9         -7.221         -153.6          28.17         -170.8          19.98          83.79
    0.6095              -40.43          28.36          24.87          62.61         -10.88         -7.325         -152.0          28.04         -170.8          21.27          83.98
    0.6248              -40.23          28.08          24.99           62.6         -10.85         -7.455         -150.0          27.88         -170.9          22.87          84.21
      0.64              -39.97          27.73          25.14          62.58         -10.82         -7.618         -147.5          27.67         -170.9          24.89           84.5
